<svg height="511pt" viewBox="-59 0 511 511.9995" width="511pt" xmlns="http://www.w3.org/2000/svg"><path d="m60.5 61.996094v90h149.992188v-90zm0 0" fill="#d3d3d8"/><path d="m135.496094 61.996094h74.996094v90h-74.996094zm0 0" fill="#babac0"/><path d="m269.890625 210.792969-.601563 198.589843-31.199218 72.597657h-237.589844v-59.996094s47.699219-104.996094 47.699219-107.695313c0-3-47.699219-102.296874-47.699219-102.296874l60-89.996094h149.992188zm0 0" fill="#ececf1"/><path d="m269.890625 210.792969-.601563 198.589843-31.199218 72.597657h-102.59375v-359.984375h74.996094zm0 0" fill="#d3d3d8"/><path d="m30.5 0v91.996094h209.992188v-91.996094zm0 0" fill="#68544f"/><path d="m135.496094 0h104.996094v91.996094h-104.996094zm0 0" fill="#53433f"/><path d="m.5 211.992188v209.992187h209.992188v-209.992187zm0 0" fill="#76e2f8"/><path d="m135.496094 211.992188h74.996094v209.992187h-74.996094zm0 0" fill="#25d9f8"/><path d="m150.496094 301.988281v30h-30v30h-30v-30h-29.996094v-30h29.996094v-30h30v30zm0 0" fill="#e63950"/><path d="m135.496094 301.988281h15v30h-15zm0 0" fill="#cc2e43"/><path d="m259.886719 377.738281-31.816407 31.824219c-23.460937 23.429688-23.460937 61.410156 0 84.839844 23.429688 23.460937 61.410157 23.460937 84.839844 0l31.824219-31.8125zm0 0" fill="#e63950"/><path d="m376.554688 430.773438c23.378906-23.394532 23.378906-61.464844 0-84.855469-23.40625-23.378907-61.445313-23.378907-84.855469 0l-31.8125 31.824219 84.847656 84.847656zm0 0" fill="#fdbf00"/></svg>