<svg height="512pt" viewBox="0 -46 512 512" width="512pt" xmlns="http://www.w3.org/2000/svg"><path d="m90 180h60v120h-60zm0 0" fill="#68544f"/><path d="m362 180h60v120h-60zm0 0" fill="#53433f"/><path d="m30 0h452v210h-452zm0 0" fill="#b35f49"/><path d="m256 0h226v210h-226zm0 0" fill="#99503d"/><path d="m60 300h60v120h-60zm0 0" fill="#68544f"/><path d="m392 300h60v120h-60zm0 0" fill="#53433f"/><g fill="#f6a96c"><path d="m60 150h392v30h-392zm0 0"/><path d="m60 90h392v30h-392zm0 0"/><path d="m60 30h392v30h-392zm0 0"/></g><path d="m256 30h196v30h-196zm0 0" fill="#ef914b"/><path d="m256 90h196v30h-196zm0 0" fill="#ef914b"/><path d="m256 150h196v30h-196zm0 0" fill="#ef914b"/><path d="m0 270h512v60h-512zm0 0" fill="#b35f49"/><path d="m256 270h256v60h-256zm0 0" fill="#99503d"/></svg>