<svg height="512pt" viewBox="-31 0 512 512" width="512pt" xmlns="http://www.w3.org/2000/svg"><path d="m297 330.800781-72 61.5-72-61.5 7.199219-58.5h129.601562zm0 0" fill="#ffbd86"/><path d="m297 330.800781-72 61.5v-120h64.800781zm0 0" fill="#f6a96c"/><path d="m450 437v75h-195l-30-60-30 60h-195v-75c2.101562-50.398438 39.601562-91.5 89.699219-98.101562l9-1.199219 62.101562 34.5 128.398438-.300781 62.101562-34.199219 9 1.199219c50.097657 6.601562 87.597657 47.703124 89.699219 98.101562zm0 0" fill="#53433f"/><path d="m450 437v75h-195l-30-60v-79.800781l64.199219-.300781 62.101562-34.199219 9 1.199219c50.097657 6.601562 87.597657 47.703124 89.699219 98.101562zm0 0" fill="#3e322e"/><path d="m150 212h-60c-16.570312 0-30-13.429688-30-30s13.429688-30 30-30h60zm0 0" fill="#ffbd86"/><path d="m360 212h-60v-60h60c16.570312 0 30 13.429688 30 30s-13.429688 30-30 30zm0 0" fill="#f6a96c"/><path d="m394.199219 71.898438-35.699219 71.699218c-2.402344 4.503906-5.097656 9-7.800781 13.203125h-251.398438c-2.703125-4.203125-5.402343-8.699219-7.800781-13.203125l-35.699219-71.699218 104.699219-71.898438h129zm0 0" fill="#725d57"/><path d="m394.199219 71.898438-35.699219 71.699218c-2.402344 4.503906-5.097656 9-7.800781 13.203125h-125.699219v-156.800781h64.5zm0 0" fill="#53433f"/><path d="m330 152v75c0 57.898438-47.101562 105-105 105s-105-47.101562-105-105v-75zm0 0" fill="#fed2a4"/><path d="m330 152v75c0 57.898438-47.101562 105-105 105v-180zm0 0" fill="#ffbd86"/><path d="m330 422h60v30h-60zm0 0" fill="#c6e2e7"/><path d="m210 62h30v90h-30zm0 0" fill="#ffd400"/><path d="m195 362h60v150h-60zm0 0" fill="#76e2f8"/><path d="m225 362h30v150h-30zm0 0" fill="#00c0f1"/><path d="m225 62h15v90h-15zm0 0" fill="#fdbf00"/><path d="m350.699219 156.800781c-22.5 34.199219-60.898438 55.199219-102.898438 55.199219h-45.601562c-42 0-80.398438-21-102.898438-55.199219l12.296875-6.300781c35.703125-18 74.402344-26.699219 113.402344-26.699219s77.699219 9 113.402344 26.699219zm0 0" fill="#53433f"/><path d="m350.699219 156.800781c-22.5 34.199219-60.898438 55.199219-102.898438 55.199219h-22.800781v-88.199219c39 0 77.699219 9 113.402344 26.699219zm0 0" fill="#3e322e"/><path d="m351.300781 337.699219-62.101562 124.199219-65.398438-62.699219-63 63-62.101562-124.5 54.300781-6.898438 72 31.5 72-31.5zm0 0" fill="#725d57"/><path d="m351.300781 337.699219-62.101562 124.199219-64.199219-61.5v-38.097657l72-31.5zm0 0" fill="#53433f"/></svg>